<svg width="217" height="234" viewBox="0 0 217 234" fill="none" xmlns="http://www.w3.org/2000/svg">
<mask id="mask0_138_301" style="mask-type:alpha" maskUnits="userSpaceOnUse" x="0" y="0" width="217" height="234">
<path fill-rule="evenodd" clip-rule="evenodd" d="M172.669 37.1594C168.6 41.2415 163.08 43.5349 157.325 43.5349C151.57 43.5349 146.05 41.2415 141.981 37.1594C137.911 33.0772 135.625 27.5405 135.625 21.7674C135.625 15.9944 137.911 10.4577 141.981 6.37554C146.05 2.29335 151.57 0 157.325 0C163.08 0 168.6 2.29335 172.669 6.37554C176.739 10.4577 179.025 15.9944 179.025 21.7674C179.025 27.5405 176.739 33.0772 172.669 37.1594ZM129.115 146.93L118.265 194.819L42.315 179.581L46.655 157.814L99.82 168.698L117.18 80.5395L97.65 88.1581V125.163H75.95V74.0093L132.37 50.0651C133.997 50.0651 135.354 49.793 136.71 49.5209C138.066 49.2488 139.423 48.9767 141.05 48.9767C148.645 48.9767 155.589 53.3302 159.495 59.8605L170.345 77.2744C180.11 93.7088 197.904 103.722 217 103.395V125.163C205.693 125.164 194.517 122.737 184.224 118.043C173.931 113.35 164.759 106.5 157.325 97.9535L150.815 130.605L173.6 152.372V234H151.9V168.698L129.115 146.93ZM14.0279 78.4401C16.0627 80.4812 18.8224 81.6279 21.7 81.6279H54.25V59.8605H21.7C18.8224 59.8605 16.0627 61.0071 14.0279 63.0482C11.9931 65.0893 10.85 67.8576 10.85 70.7442C10.85 73.6307 11.9931 76.399 14.0279 78.4401ZM3.17789 121.975C5.21266 124.016 7.9724 125.163 10.85 125.163H54.25V103.395H10.85C7.9724 103.395 5.21266 104.542 3.17789 106.583C1.14312 108.624 0 111.393 0 114.279C0 117.166 1.14312 119.934 3.17789 121.975Z" fill="#868686"/>
<path d="M32.55 38.093C29.6724 38.093 26.9127 36.9463 24.8779 34.9053C22.8431 32.8642 21.7 30.0958 21.7 27.2093C21.7 24.3228 22.8431 21.5544 24.8779 19.5133C26.9127 17.4723 29.6724 16.3256 32.55 16.3256H86.8V38.093H32.55Z" fill="#868686"/>
</mask>
<g mask="url(#mask0_138_301)">
<rect x="3" y="53" width="60" height="37" fill="#67ECF4"/>
<rect x="14" y="8" width="78" height="37" fill="#67ECF4"/>
<path d="M110 -6.5L205 0L222.5 115.5L205 231L152.5 244.5L31.5 194L43.5 156L61.5 143.5L68 87.5L78.5 63.5L97 44.5L110 -6.5Z" fill="#67ECF4"/>
<rect y="98" width="60" height="37" fill="#67ECF4"/>
</g>
</svg>
