<svg width="46" height="77" viewBox="0 0 46 77" fill="none" xmlns="http://www.w3.org/2000/svg">
<path d="M32.8154 76L1 72.4392V50.8516M32.8154 76L45 72.4392V51.7418M32.8154 76V54.8576M45 16.3561L32.8154 20.362M45 16.3561L37.5538 9.45697M45 16.3561V38.8338M32.8154 20.362L1 16.3561M32.8154 20.362L37.5538 9.45697M32.8154 20.362V41.5045M1 16.3561L5.9641 5.89614M1 16.3561V37.7211M37.5538 9.45697L5.9641 5.89614M37.5538 9.45697V4.11573L6.64103 1L5.9641 5.89614M1 37.7211V50.8516M1 37.7211L8.95385 45.2878M1 37.7211L16.9077 39.6128M32.8154 41.5045V54.8576M32.8154 41.5045L24.8615 47.1795M32.8154 41.5045L16.9077 39.6128M32.8154 41.5045L35.8615 47.4021M32.8154 41.5045L38.9077 40.1691M45 38.8338V51.7418M45 38.8338L41.9538 46.0668M45 38.8338L38.9077 40.1691M32.8154 54.8576L16.9077 52.8546M32.8154 54.8576L38.9077 53.2997M45 51.7418L38.9077 53.2997M1 50.8516L16.9077 52.8546M16.9077 52.8546L24.8615 47.1795M16.9077 52.8546L8.95385 45.2878M38.9077 53.2997L35.8615 47.4021M38.9077 53.2997L41.9538 46.0668M24.8615 47.1795L8.95385 45.2878M24.8615 47.1795L16.9077 39.6128M8.95385 45.2878L16.9077 39.6128M35.8615 47.4021L41.9538 46.0668M35.8615 47.4021L38.9077 40.1691M41.9538 46.0668L38.9077 40.1691" stroke="#161616"/>
</svg>
